<svg width="115" height="23" viewBox="0 0 115 23" fill="none" xmlns="http://www.w3.org/2000/svg">
<path d="M6.17547 18.245C4.89043 18.245 3.78508 17.9728 2.85942 17.4283C1.9392 16.8783 1.23134 16.116 0.73584 15.1413C0.245783 14.1667 0.000754632 13.045 0.000754632 11.7763C0.000754632 10.4912 0.248506 9.36411 0.744008 8.39489C1.24495 7.42022 1.95554 6.66063 2.87575 6.11612C3.79597 5.56617 4.89043 5.29119 6.15914 5.29119C7.2536 5.29119 8.21193 5.48994 9.03414 5.88743C9.85634 6.28492 10.507 6.84304 10.9862 7.56179C11.4654 8.28054 11.7294 9.12453 11.7785 10.0938H8.49507C8.40251 9.46757 8.15748 8.9639 7.75999 8.58274C7.36794 8.19614 6.85338 8.00284 6.21631 8.00284C5.67725 8.00284 5.20625 8.14986 4.80331 8.44389C4.40582 8.73248 4.09545 9.15447 3.8722 9.70987C3.64896 10.2653 3.53733 10.9377 3.53733 11.7273C3.53733 12.5277 3.64623 13.2083 3.86404 13.7692C4.08728 14.33 4.40038 14.7575 4.80331 15.0515C5.20625 15.3455 5.67725 15.4925 6.21631 15.4925C6.6138 15.4925 6.97045 15.4109 7.28627 15.2475C7.60753 15.0842 7.87161 14.8473 8.07852 14.5369C8.29088 14.2211 8.42973 13.8427 8.49507 13.4016H11.7785C11.724 14.36 11.4626 15.204 10.9944 15.9336C10.5315 16.6578 9.89174 17.2241 9.07497 17.6325C8.25821 18.0408 7.29171 18.245 6.17547 18.245ZM19.6745 18.245C18.4058 18.245 17.3086 17.9755 16.3829 17.4364C15.4627 16.8919 14.7521 16.1351 14.2512 15.1658C13.7503 14.1912 13.4998 13.0613 13.4998 11.7763C13.4998 10.4804 13.7503 9.34777 14.2512 8.37855C14.7521 7.40388 15.4627 6.64702 16.3829 6.10795C17.3086 5.56345 18.4058 5.29119 19.6745 5.29119C20.9432 5.29119 22.0377 5.56345 22.9579 6.10795C23.8835 6.64702 24.5968 7.40388 25.0978 8.37855C25.5987 9.34777 25.8492 10.4804 25.8492 11.7763C25.8492 13.0613 25.5987 14.1912 25.0978 15.1658C24.5968 16.1351 23.8835 16.8919 22.9579 17.4364C22.0377 17.9755 20.9432 18.245 19.6745 18.245ZM19.6908 15.5497C20.268 15.5497 20.7499 15.3864 21.1365 15.0597C21.5231 14.7275 21.8144 14.2756 22.0104 13.7038C22.2119 13.1321 22.3126 12.4814 22.3126 11.7518C22.3126 11.0221 22.2119 10.3714 22.0104 9.79972C21.8144 9.22798 21.5231 8.77604 21.1365 8.44389C20.7499 8.11174 20.268 7.94567 19.6908 7.94567C19.1082 7.94567 18.6181 8.11174 18.2207 8.44389C17.8286 8.77604 17.5319 9.22798 17.3304 9.79972C17.1344 10.3714 17.0364 11.0221 17.0364 11.7518C17.0364 12.4814 17.1344 13.1321 17.3304 13.7038C17.5319 14.2756 17.8286 14.7275 18.2207 15.0597C18.6181 15.3864 19.1082 15.5497 19.6908 15.5497ZM32.7345 18.2042C31.7816 18.2042 30.9186 17.9592 30.1454 17.4691C29.3776 16.9736 28.7678 16.2467 28.3158 15.2884C27.8693 14.3246 27.6461 13.143 27.6461 11.7436C27.6461 10.3061 27.8775 9.11091 28.3403 8.15803C28.8032 7.19969 29.4185 6.48366 30.1862 6.00994C30.9594 5.53078 31.8061 5.29119 32.7263 5.29119C33.4288 5.29119 34.0141 5.41098 34.4824 5.65057C34.9561 5.88471 35.3373 6.17874 35.6258 6.53267C35.9199 6.88116 36.1431 7.22419 36.2956 7.56179H36.4018V1.27273H39.873V18H36.4426V15.9908H36.2956C36.1322 16.3393 35.9008 16.685 35.6013 17.0281C35.3073 17.3656 34.9234 17.6461 34.4497 17.8693C33.9814 18.0926 33.4097 18.2042 32.7345 18.2042ZM33.8371 15.4354C34.398 15.4354 34.8717 15.2829 35.2583 14.978C35.6503 14.6676 35.9498 14.2347 36.1567 13.6793C36.3691 13.1239 36.4753 12.4732 36.4753 11.7273C36.4753 10.9813 36.3718 10.3333 36.1649 9.78338C35.958 9.23343 35.6585 8.80871 35.2665 8.50923C34.8744 8.20975 34.398 8.06001 33.8371 8.06001C33.2654 8.06001 32.7835 8.2152 32.3915 8.52557C31.9994 8.83594 31.7027 9.2661 31.5012 9.81605C31.2997 10.366 31.199 11.0031 31.199 11.7273C31.199 12.4569 31.2997 13.1022 31.5012 13.663C31.7081 14.2184 32.0049 14.654 32.3915 14.9698C32.7835 15.2802 33.2654 15.4354 33.8371 15.4354ZM48.451 18.245C47.1606 18.245 46.0498 17.9837 45.1187 17.4609C44.193 16.9328 43.4797 16.1868 42.9787 15.223C42.4778 14.2538 42.2273 13.1076 42.2273 11.7844C42.2273 10.494 42.4778 9.36139 42.9787 8.38672C43.4797 7.41205 44.1848 6.65246 45.0941 6.10795C46.0089 5.56345 47.0816 5.29119 48.3122 5.29119C49.1398 5.29119 49.9103 5.4246 50.6236 5.69141C51.3424 5.95277 51.9686 6.34754 52.5022 6.87571C53.0412 7.40388 53.4605 8.06818 53.76 8.86861C54.0595 9.66359 54.2092 10.5947 54.2092 11.6619V12.6175H43.6158V10.4613H50.934C50.934 9.96035 50.8251 9.51657 50.6073 9.12997C50.3895 8.74337 50.0873 8.44117 49.7007 8.22337C49.3195 8.00012 48.8758 7.88849 48.3694 7.88849C47.8412 7.88849 47.3729 8.01101 46.9645 8.25604C46.5616 8.49562 46.2458 8.8196 46.0171 9.22798C45.7884 9.63092 45.6713 10.0801 45.6659 10.5756V12.6257C45.6659 13.2464 45.7802 13.7828 46.0089 14.2347C46.2431 14.6867 46.5725 15.0352 46.9972 15.2802C47.4219 15.5252 47.9256 15.6477 48.5082 15.6477C48.8948 15.6477 49.2487 15.5933 49.57 15.4844C49.8913 15.3755 50.1662 15.2121 50.3949 14.9943C50.6236 14.7765 50.7979 14.5097 50.9177 14.1939L54.1357 14.4062C53.9723 15.1795 53.6375 15.8546 53.1311 16.4318C52.6301 17.0036 51.9822 17.45 51.1872 17.7713C50.3977 18.0871 49.4856 18.245 48.451 18.245Z" fill="black"/>
<path d="M57.2476 11.2944C57.2476 9.26882 57.5171 7.40388 58.0562 5.69957C58.6007 3.99526 59.431 2.41619 60.5473 0.962358H63.8715C63.4468 1.50142 63.052 2.16027 62.6872 2.93892C62.3224 3.71212 62.0038 4.56155 61.7316 5.48722C61.4593 6.41288 61.247 7.37121 61.0945 8.36222C60.942 9.34777 60.8658 10.3252 60.8658 11.2944C60.8658 12.5849 60.9965 13.889 61.2579 15.2067C61.5247 16.5189 61.884 17.7386 62.336 18.8658C62.7934 19.9929 63.3052 20.9158 63.8715 21.6346H60.5473C59.431 20.1808 58.6007 18.6017 58.0562 16.8974C57.5171 15.1931 57.2476 13.3254 57.2476 11.2944ZM114.723 11.2944C114.723 13.3254 114.451 15.1931 113.906 16.8974C113.367 18.6017 112.54 20.1808 111.423 21.6346H108.099C108.524 21.0955 108.919 20.4367 109.283 19.658C109.648 18.8794 109.967 18.0299 110.239 17.1097C110.511 16.1841 110.724 15.2257 110.876 14.2347C111.029 13.2437 111.105 12.2636 111.105 11.2944C111.105 10.0039 110.971 8.70253 110.705 7.39027C110.443 6.07256 110.084 4.85286 109.626 3.73118C109.175 2.60405 108.665 1.68111 108.099 0.962358H111.423C112.54 2.41619 113.367 3.99526 113.906 5.69957C114.451 7.40388 114.723 9.26882 114.723 11.2944Z" fill="#333333"/>
<path d="M73.936 12.6584V5.45455H77.4154V18H74.0749V15.7212H73.9442C73.6611 16.4563 73.1901 17.0471 72.5312 17.4936C71.8778 17.9401 71.0801 18.1634 70.1381 18.1634C69.2996 18.1634 68.5617 17.9728 67.9247 17.5916C67.2876 17.2105 66.7894 16.6687 66.43 15.9663C66.0761 15.2638 65.8964 14.4226 65.8909 13.4425V5.45455H69.3703V12.8217C69.3758 13.5623 69.5745 14.1476 69.9666 14.5778C70.3586 15.0079 70.8841 15.223 71.5429 15.223C71.9622 15.223 72.3542 15.1277 72.7191 14.9371C73.0839 14.7411 73.3779 14.4525 73.6012 14.0714C73.8299 13.6902 73.9415 13.2192 73.936 12.6584ZM85.8505 22.9659C84.7234 22.9659 83.7569 22.8107 82.951 22.5004C82.1506 22.1954 81.5135 21.7789 81.0398 21.2507C80.5661 20.7225 80.2584 20.129 80.1169 19.4702L83.3349 19.0373C83.4329 19.2878 83.5881 19.5219 83.8005 19.7397C84.0128 19.9575 84.2933 20.1317 84.6417 20.2624C84.9957 20.3986 85.4258 20.4666 85.9322 20.4666C86.6891 20.4666 87.3125 20.2815 87.8026 19.9112C88.2981 19.5464 88.5459 18.9338 88.5459 18.0735V15.7784H88.3988C88.2464 16.1269 88.0177 16.4563 87.7128 16.7667C87.4078 17.0771 87.0158 17.3303 86.5366 17.5263C86.0575 17.7223 85.4857 17.8203 84.8214 17.8203C83.8794 17.8203 83.0218 17.6025 82.2486 17.1669C81.4809 16.7259 80.8683 16.0534 80.4109 15.1495C79.959 14.2402 79.733 13.0913 79.733 11.7028C79.733 10.2816 79.9644 9.09458 80.4272 8.14169C80.8901 7.1888 81.5054 6.4755 82.2731 6.00178C83.0463 5.52805 83.893 5.29119 84.8133 5.29119C85.5157 5.29119 86.1037 5.41098 86.5775 5.65057C87.0512 5.88471 87.4323 6.17874 87.7209 6.53267C88.015 6.88116 88.2409 7.22419 88.3988 7.56179H88.5295V5.45455H91.9844V18.1225C91.9844 19.1897 91.7231 20.0827 91.2003 20.8015C90.6776 21.5202 89.9534 22.0593 89.0277 22.4187C88.1075 22.7835 87.0485 22.9659 85.8505 22.9659ZM85.9241 15.2067C86.4849 15.2067 86.9586 15.0678 87.3452 14.7901C87.7373 14.507 88.0367 14.104 88.2437 13.5813C88.456 13.0531 88.5622 12.4215 88.5622 11.6864C88.5622 10.9513 88.4587 10.3143 88.2518 9.77521C88.0449 9.23071 87.7454 8.80871 87.3534 8.50923C86.9613 8.20975 86.4849 8.06001 85.9241 8.06001C85.3523 8.06001 84.8704 8.2152 84.4784 8.52557C84.0863 8.83049 83.7896 9.25521 83.5881 9.79972C83.3866 10.3442 83.2859 10.9731 83.2859 11.6864C83.2859 12.4106 83.3866 13.0368 83.5881 13.565C83.795 14.0877 84.0918 14.4934 84.4784 14.782C84.8704 15.0651 85.3523 15.2067 85.9241 15.2067ZM100.422 18.245C99.1529 18.245 98.0557 17.9755 97.13 17.4364C96.2098 16.8919 95.4992 16.1351 94.9983 15.1658C94.4973 14.1912 94.2468 13.0613 94.2468 11.7763C94.2468 10.4804 94.4973 9.34777 94.9983 8.37855C95.4992 7.40388 96.2098 6.64702 97.13 6.10795C98.0557 5.56345 99.1529 5.29119 100.422 5.29119C101.69 5.29119 102.785 5.56345 103.705 6.10795C104.631 6.64702 105.344 7.40388 105.845 8.37855C106.346 9.34777 106.596 10.4804 106.596 11.7763C106.596 13.0613 106.346 14.1912 105.845 15.1658C105.344 16.1351 104.631 16.8919 103.705 17.4364C102.785 17.9755 101.69 18.245 100.422 18.245ZM100.438 15.5497C101.015 15.5497 101.497 15.3864 101.884 15.0597C102.27 14.7275 102.561 14.2756 102.758 13.7038C102.959 13.1321 103.06 12.4814 103.06 11.7518C103.06 11.0221 102.959 10.3714 102.758 9.79972C102.561 9.22798 102.27 8.77604 101.884 8.44389C101.497 8.11174 101.015 7.94567 100.438 7.94567C99.8553 7.94567 99.3652 8.11174 98.9677 8.44389C98.5757 8.77604 98.2789 9.22798 98.0775 9.79972C97.8814 10.3714 97.7834 11.0221 97.7834 11.7518C97.7834 12.4814 97.8814 13.1321 98.0775 13.7038C98.2789 14.2756 98.5757 14.7275 98.9677 15.0597C99.3652 15.3864 99.8553 15.5497 100.438 15.5497Z" fill="#42B883"/>
</svg>
